<?xml version="1.0" encoding="utf-8"?>
<!-- Generator: Adobe Illustrator 20.1.0, SVG Export Plug-In . SVG Version: 6.00 Build 0)  -->
<svg version="1.0" id="Layer_1" xmlns="http://www.w3.org/2000/svg" xmlns:xlink="http://www.w3.org/1999/xlink" x="0px" y="0px"
	 viewBox="0 0 240 240" style="enable-background:new 0 0 240 240;" xml:space="preserve">
<style type="text/css">
	.st0{fill:#002C86;}
</style>
<g>
	<path class="st0" d="M120,0C53.7,0,0,53.7,0,120s53.7,120,120,120s120-53.7,120-120S186.3,0,120,0z M120,220
		c-55.2,0-100-44.8-100-100C20,64.8,64.8,20,120,20c55.2,0,100,44.8,100,100C220,175.2,175.2,220,120,220z"/>
	<polygon class="st0" points="129.7,57.9 109.7,57.9 109.7,120 150.3,160.4 164.3,146.3 129.7,111.7 	"/>
</g>
</svg>
