<?xml version="1.0" encoding="utf-8"?>
<!-- Generator: Adobe Illustrator 20.1.0, SVG Export Plug-In . SVG Version: 6.00 Build 0)  -->
<svg version="1.0" id="Layer_1" xmlns="http://www.w3.org/2000/svg" xmlns:xlink="http://www.w3.org/1999/xlink" x="0px" y="0px"
	 viewBox="0 0 82 82" style="enable-background:new 0 0 82 82;" xml:space="preserve">
<style type="text/css">
	.st0{fill:url(#SVGID_1_);}
	.st1{fill:#FFFFFF;}
</style>
<g>
	
		<linearGradient id="SVGID_1_" gradientUnits="userSpaceOnUse" x1="45.253" y1="94.753" x2="45.253" y2="58.2075" gradientTransform="matrix(0.7071 -0.7071 0.7071 0.7071 -18.7444 45.253)">
		<stop  offset="0.6" style="stop-color:#FFFFFF"/>
		<stop  offset="1" style="stop-color:#4D90D7"/>
	</linearGradient>
	<path class="st0" d="M58.7,50.2l21.6,21.6c2.3,2.3,2.3,6.1,0,8.5s-6.1,2.3-8.5,0L50.2,58.7L58.7,50.2z"/>
	<path class="st1" d="M10.3,10.3c-13.7,13.7-13.7,35.8,0,49.5s35.8,13.7,49.5,0s13.7-35.8,0-49.5S23.9-3.4,10.3,10.3z M52.7,52.7
		c-9.8,9.8-25.6,9.8-35.4,0s-9.8-25.6,0-35.4c9.8-9.8,25.6-9.8,35.4,0S62.4,42.9,52.7,52.7z"/>
</g>
</svg>
